# xmcd
#
# Track frame offsets:
#	150
#	19427
#	36975
#
# Disc length: 709 seconds
#
# Revision: 1
# Processed by: cddbd v1.5.2PL0 Copyright (c) Steve Scherf et al.
# Submitted via: EasyCDDAExtractor 12.0.1.1
#
DISCID=2202c303
DTITLE=Tyrese - Nobody Else
DYEAR=1999
DGENRE=R&B
TTITLE0=Nobody Else (Bigshot and Soulsisstah Radio Mix)
TTITLE1=Nobody Else (Album Version)
TTITLE2=Nobody Else (Bigshot and Soulsisstah Club Mix)
EXTD=
EXTT0=
EXTT1=
EXTT2=
PLAYORDER=
